PathFileType	4	(X/Y/Z)	s01c0401.trc
DataRate	CameraRate	NumFrames	NumMarkers	Units	OrigDataRate	OrigDataStartFrame	OrigNumFrames
200	200	4	48	mm	200	500	2000
Frame#	Time	racr			lacr			c7			jug			rlel			rdr			llel			ldr			s2			lic			ric			lasi			rasi			rpsi			lpsi			rgt			lgt			rth1			rth2			rth3			rth4			rlfc			rsh1			rsh2			rsh3			rsh4			rlmal			rmmal			rcal			rtoe			rmt5			lth1			lth2			lth4			lth3			llfc			lsh1			lsh2			lsh3			lsh4			llmal			lmmal			lcal			ltoe			lmt5			SBIKE			LBIKE			RBIKE			
		X1	Y1	Z1	X2	Y2	Z2	X3	Y3	Z3	X4	Y4	Z4	X5	Y5	Z5	X6	Y6	Z6	X7	Y7	Z7	X8	Y8	Z8	X9	Y9	Z9	X10	Y10	Z10	X11	Y11	Z11	X12	Y12	Z12	X13	Y13	Z13	X14	Y14	Z14	X15	Y15	Z15	X16	Y16	Z16	X17	Y17	Z17	X18	Y18	Z18	X19	Y19	Z19	X20	Y20	Z20	X21	Y21	Z21	X22	Y22	Z22	X23	Y23	Z23	X24	Y24	Z24	X25	Y25	Z25	X26	Y26	Z26	X27	Y27	Z27	X28	Y28	Z28	X29	Y29	Z29	X30	Y30	Z30	X31	Y31	Z31	X32	Y32	Z32	X33	Y33	Z33	X34	Y34	Z34	X35	Y35	Z35	X36	Y36	Z36	X37	Y37	Z37	X38	Y38	Z38	X39	Y39	Z39	X40	Y40	Z40	X41	Y41	Z41	X42	Y42	Z42	X43	Y43	Z43	X44	Y44	Z44	X45	Y45	Z45	X46	Y46	Z46	X47	Y47	Z47	X48	Y48	Z48	
500	2.5000	674.923042	1326.377211	-66.511260	694.559318	1304.749607	-436.911160	666.457382	1411.773818	-254.916229	685.789352	1244.915720	-247.031813	545.958871	1070.008037	37.610417	699.159784	899.231695	-60.576158	547.896332	1070.558087	-561.168592	695.880494	892.714724	-472.667190	147.925059	1187.887000	-238.241049	312.967414	1193.707152	-425.186845	318.153067	1173.023114	-93.876315	310.374278	1136.508077	-398.458934	342.087774	1127.452365	-127.721891	190.051641	1221.666772	-189.605945	178.160276	1230.196662	-294.170969	252.443560	1058.063331	-68.922625	256.852066	1068.821033	-447.728238	297.749689	935.829597	-54.462290	330.468149	859.716757	-60.622300	360.369740	775.659332	-74.490066	382.059949	879.209771	-73.352228	379.819012	661.201662	-98.811538	329.457692	552.649388	-64.512001	305.099242	471.530659	-70.757439	271.208294	390.093151	-82.165245	348.412476	459.138416	-111.071335	212.302771	279.454520	-106.229318	249.571831	286.399632	-182.417284	162.478021	266.443126	-156.922074	412.002289	159.645262	-140.454224	303.441503	165.207169	-71.154517	342.894713	978.593885	-460.356431	421.721594	942.216700	-454.713189	445.105326	989.520408	-442.444960	493.321520	896.857560	-443.108973	555.210534	814.328172	-424.032581	449.759186	773.571030	-454.293657	375.206493	730.039230	-447.762810	299.470532	690.722000	-434.588124	403.984198	685.392618	-415.587619	191.537198	633.309688	-420.181308	215.465760	617.191724	-336.132326	133.813828	649.296462	-375.830549	278.550509	411.152737	-377.022386	202.649538	484.706211	-444.567031	-275.865398	875.635207	-267.355750	-21.360759	80.553821	-453.850556	-21.348197	80.344431	-53.949927	
501	2.5050	675.975631	1327.669728	-68.996391	693.901474	1305.597252	-439.415317	666.461097	1412.796058	-257.662748	686.150486	1246.143402	-249.518736	547.250151	1071.633137	36.445340	699.529830	899.409418	-60.604867	547.518631	1070.384667	-561.902492	695.930430	893.193623	-472.897779	148.097306	1188.733511	-238.465097	312.591419	1194.847183	-425.841508	318.834108	1173.710716	-94.740264	310.313590	1137.505214	-399.053241	342.375433	1127.792999	-128.262421	190.114388	1222.761460	-189.541866	178.253013	1230.910581	-294.233572	251.962224	1058.515992	-69.603791	256.965552	1070.472427	-448.354377	295.978032	936.032019	-54.794015	327.717384	859.641768	-60.688103	356.825017	775.193617	-74.218489	379.681726	878.371234	-73.294657	375.198024	660.457632	-98.409357	324.830696	551.896081	-64.191844	300.676102	470.653945	-70.477633	267.045624	389.172780	-81.918012	344.203998	458.376945	-110.523871	208.534213	278.453876	-106.393725	245.051165	284.816835	-182.284300	158.982142	266.298330	-156.876444	406.991013	156.083092	-140.418933	298.526726	163.150314	-71.034894	343.721215	980.818723	-461.042088	423.097186	945.320276	-455.691204	445.927209	992.843478	-442.949845	494.780535	900.595302	-444.154241	557.581509	818.760732	-424.606526	452.070008	777.415842	-454.557684	377.799468	733.416055	-447.913959	302.264476	693.736924	-434.646137	406.892063	688.989925	-415.900238	194.784221	635.605228	-420.146277	218.886992	619.731705	-336.084077	136.768387	650.999688	-375.846520	284.435136	414.704905	-377.178199	207.767926	487.473224	-444.760240	-275.930466	875.610452	-267.243492	-21.363231	80.562885	-453.854005	-21.354740	80.353723	-53.956903	
502	2.5100	677.069525	1328.779196	-71.516318	693.211185	1306.412620	-441.870557	666.490383	1413.750458	-260.323766	686.468985	1247.233149	-252.155605	548.457878	1073.272196	35.339808	699.901801	899.619586	-60.670554	547.171009	1070.185282	-562.728057	695.930811	893.499218	-473.199663	148.170727	1189.459785	-238.634110	312.196380	1195.973641	-426.498830	319.641976	1174.398270	-95.664235	310.197642	1138.636052	-399.589138	342.628796	1128.178414	-128.818924	190.447409	1223.306190	-189.727532	178.353642	1231.735544	-294.327886	251.484085	1059.169644	-70.291507	256.989827	1072.127761	-448.990482	294.121224	936.434059	-55.074238	325.026325	859.587307	-60.778944	353.247431	774.817344	-73.978068	377.255107	877.759153	-73.214903	370.508737	659.847331	-98.054877	320.107430	551.240718	-63.887268	296.183637	470.043598	-70.203534	262.789988	388.374457	-81.639206	339.915106	457.753706	-110.087205	204.765958	277.751374	-106.498382	241.069999	283.655104	-182.029829	155.431275	266.346036	-156.803902	401.855855	152.776722	-140.386924	293.553858	161.363139	-70.994400	344.417175	983.103087	-461.814760	424.181558	948.486557	-456.625726	446.581891	996.243165	-443.596266	497.457994	905.263318	-443.786459	559.828220	823.232693	-425.258951	454.282607	781.254945	-454.873132	380.283585	736.819688	-448.090955	305.029598	696.633264	-434.703440	409.725203	692.522687	-416.230113	198.002080	637.688534	-420.119644	222.335232	622.129193	-336.060576	139.736388	652.475558	-375.869410	290.457156	418.220453	-377.234736	212.747406	490.035602	-444.797913	-275.974973	875.640359	-267.257212	-21.367028	80.560519	-453.861750	-21.352331	80.372838	-53.962427	
503	2.5150	678.313419	1329.769632	-74.078726	692.543525	1307.176641	-444.402764	666.612068	1414.594109	-263.070240	686.865842	1248.405880	-254.726770	549.588351	1074.854921	34.309701	699.852972	899.497514	-60.889573	547.054348	1070.247960	-563.337311	695.907736	893.830178	-473.449577	148.248966	1190.480512	-238.883127	311.811598	1197.086402	-427.158928	320.320774	1175.251567	-96.523039	310.050428	1139.790144	-400.172792	342.833777	1128.569999	-129.381513	190.748703	1224.108140	-189.952122	178.450592	1232.728831	-294.450946	250.957361	1059.863982	-70.988795	256.889515	1073.790338	-449.621896	292.237521	936.916493	-55.325967	322.273319	859.758692	-60.396276	349.665764	774.570366	-73.694272	374.816441	877.284546	-73.166827	365.868208	659.290552	-97.831086	315.345446	550.879695	-63.531694	291.615056	469.547828	-69.869761	258.503997	387.842612	-81.319428	335.614848	457.305959	-109.498289	201.054680	277.145762	-106.490442	237.419489	282.820604	-181.684108	151.870129	266.511402	-156.835662	396.730889	149.672318	-140.295055	288.518864	159.636023	-70.962347	344.966614	985.434585	-462.647174	425.115914	951.747224	-457.509471	446.917693	999.802628	-444.319481	498.917912	909.370999	-444.632756	561.713015	827.527472	-426.355458	456.389747	785.085359	-455.225385	382.692492	740.206272	-448.359035	307.758427	699.433776	-434.774640	412.513363	696.010862	-416.679627	201.242542	639.596998	-420.097292	225.807009	624.342052	-336.057222	142.704237	653.713705	-375.877691	296.491322	421.500400	-377.305480	217.842104	492.302990	-444.877378	-276.042502	875.647147	-267.207885	-21.371515	80.559015	-453.868694	-21.369073	80.382806	-53.971360	
